<svg xmlns="http://www.w3.org/2000/svg" viewBox="0 0 140 140" id="car"><path fill="#f0c854" d="M134 70c0 5.5-.7 10.8-2 15.9-7 27.3-31.5 47.5-60.8 48H70c-35.3 0-64-28.7-64-64S34.7 6 70 6s64 28.7 64 64z"></path><path d="m90.8 44.8-.1-.1-.3-.3c-.4-.4-.8-.7-1.3-.9-.2-.1-.3-.2-.5-.2-.2-.2-.6-.3-.9-.3h-.2c-.1 0-.3 0-.4-.1H53.4c-2.2 0-4.2 1.3-5.1 3.3L38.2 67.8h-1.7c-3.1 0-5.6 2.5-5.6 5.6v10.3h-.4c-.2.1-.4.2-.4.4 0 .1-.1.1-.1.2V88.4c0 .1 0 .2.1.2 0 .1.1.1.1.2l.1.1 3 3v3.3c0 .2 0 .5.1.7 0 0 0 .1.1.1 0 .1.1.2.2.3.1.1.2.3.3.3L71.2 134c29.3-.5 53.8-20.8 60.8-48L90.8 44.8z" opacity=".3"></path><path fill="#e45647" d="M101.8 67.8 91.7 46.2c-.9-2-2.9-3.3-5.1-3.3H53.4c-2.2 0-4.2 1.3-5.1 3.3L38.2 67.8h63.6z"></path><path fill="#f3f3f3" d="m44 64 7.7-16.4c.3-.7 1-1.1 1.7-1.1h33.2c.7 0 1.4.4 1.7 1.1L96 64H44z"></path><path fill="#cd4d40" d="M30.9 73.4v10.5H109V73.4c0-3.1-2.5-5.6-5.6-5.6H36.5c-3.1 0-5.6 2.5-5.6 5.6z"></path><path fill="#dfe1e2" d="M30 88.3v-3.7c0-.5.4-.9.9-.9H109c.5 0 .9.4.9.9v3.7c0 .5-.4.9-.9.9H30.9c-.5 0-.9-.4-.9-.9z"></path><path fill="#263a46" d="M33.3 89.2v6.1c0 1 .8 1.9 1.9 1.9h7.3c1 0 1.9-.8 1.9-1.9v-6.1H33.3zm62.4 0v6.1c0 1 .8 1.9 1.9 1.9h7.3c1 0 1.9-.8 1.9-1.9v-6.1H95.7z"></path><path fill="#f3f3f3" d="M49.8 77.6v1.2c0 .5-.5 1-1 1H37.7c-.5 0-1-.5-1-1v-6c0-.5.5-1 1-1h6.4c3.2 0 5.7 2.6 5.7 5.8z"></path><path fill="#f0c854" d="M42.7 72.8c-1.7 0-3 1.3-3 3s1.3 3 3 3 3-1.3 3-3c0-1.6-1.3-3-3-3z"></path><path fill="#f3f3f3" d="M90.2 77.6v1.2c0 .5.5 1 1 1h11.2c.5 0 1-.5 1-1v-6c0-.5-.5-1-1-1H96c-3.3 0-5.8 2.6-5.8 5.8z"></path><path fill="#f0c854" d="M97.3 72.8c1.7 0 3 1.3 3 3s-1.3 3-3 3-3-1.3-3-3c0-1.6 1.3-3 3-3z"></path><path fill="#f3f3f3" d="M80.3 73.8v4c0 .5-.4 1-1 1H60.7c-.5 0-1-.5-1-1v-4c0-.5.5-1 1-1h18.7c.5 0 .9.5.9 1z"></path><path fill="#263a46" d="M70.4 46.6 57.9 64H53l12.5-17.4zM83.1 46.6 70.6 64h-4.9l12.5-17.4z" opacity=".15"></path></svg>