<svg xmlns="http://www.w3.org/2000/svg" width="32" height="32" id="car"><path fill="#25b39e" fill-rule="evenodd" d="M7 13.6V8.5h2v5.1m2-.1v-7h2v7m2 .1v-3.1h2v3.1m2-.1v-9h2v9"></path><path fill="#8fb6d7" d="M15.593 20.728c-.76 0-1.16-.01-1.967.801l-2.234 2.2h5.744c.483 0 .875-.461.875-1.02v-1.98z"></path><path fill="#f8b84e" d="m13.076 28.738 9.022-.01m2.957.01h2.07c.484 0 .875-.46.875-1.02v-2.98c0-.558-.391-1.024-.875-1.02h-1.77l-2.476-2.266c-.476-.497-.989-.723-1.563-.723h-5.657c-.76 0-1.162-.01-1.97.8l-2.237 2.2-3.577.985c-.466.128-.875.462-.875 1.02v1.984c0 .56.391 1.02.875 1.02h2.128"></path><path style="line-height:normal;-inkscape-font-specification:Sans;text-indent:0;text-align:start;text-decoration-line:none;text-transform:none;block-progression:tb;marker:none" fill="#34485c" d="M175 1554.362c.83 0 1.5.67 1.5 1.5s-.67 1.5-1.5 1.5-1.5-.67-1.5-1.5.67-1.5 1.5-1.5z" color="#000" font-family="Sans" font-weight="400" overflow="visible" transform="translate(-163.489 -1527.362)"></path><path fill="#4bbfeb" d="M15.671 20.728c-.759 0-1.16-.01-1.967.801l-2.234 2.2h5.666c.483 0 .875-.461.875-1.02v-1.98h-2.34z"></path><path fill="#8fb6d7" d="M20.011 20.728v1.981c0 .559.392 1.02.875 1.02h6.283c-.015-.001-.028-.01-.043-.01H25.36l-2.475-2.268c-.476-.497-.987-.723-1.56-.723H20.01z"></path><path fill="none" stroke="#2b4255" stroke-linecap="round" stroke-linejoin="round" d="M16.511 25.728h1m2.507 0h1"></path><path style="line-height:normal;-inkscape-font-specification:Sans;text-indent:0;text-align:start;text-decoration-line:none;text-transform:none;block-progression:tb;marker:none" fill="#34485c" d="M187 1554.362c.83 0 1.5.67 1.5 1.5s-.67 1.5-1.5 1.5-1.5-.67-1.5-1.5.67-1.5 1.5-1.5z" color="#000" font-family="Sans" font-weight="400" overflow="visible" transform="translate(-163.489 -1527.362)"></path><path style="line-height:normal;text-indent:0;text-align:start;text-decoration-line:none;text-decoration-style:solid;text-decoration-color:#000;text-transform:none;block-progression:tb;isolation:auto;mix-blend-mode:normal" fill="#576d7e" fill-rule="evenodd" d="M170.489 1554.362v.73c-.005.133.021.185.035.27h.46c.677.01.677-1.01 0-1z" color="#000" font-family="sans-serif" font-weight="400" overflow="visible" transform="translate(-163.489 -1527.362)"></path><path fill="#f8b84e" d="M15.742 20.728c-.36 0-.7-.01-1.074.118-.375.124-.73.372-1.145.789l-2.043 2.011h-.006l-.082.08h1.367l1.44-1.418h.002c.356-.358.578-.492.77-.556.191-.064.406-.066.77-.066h2.27v-.957h-2.27z"></path><path fill="#4bbfeb" d="M20.011 20.728v1.981c0 .559.392 1.02.875 1.02h6.283c-.015-.001-.028-.01-.043-.01H25.36l-2.475-2.268c-.476-.497-.987-.723-1.56-.723H20.01z"></path><path style="line-height:normal;text-indent:0;text-align:start;text-decoration-line:none;text-decoration-style:solid;text-decoration-color:#000;text-transform:none;block-progression:tb;isolation:auto;mix-blend-mode:normal" fill="#f8b84e" d="M183.5 1548.092v.957h1.131c.423 0 .76.14 1.147.544l.011.011 1.624 1.487h3.246c-.015-.001-.028-.01-.043-.01h-1.768l-.143-.131s-1.48-1.408-2.248-2.069l.021.023c-.49-.512-.885-.812-1.75-.812z" color="#000" font-family="sans-serif" font-weight="400" overflow="visible" transform="translate(-163.489 -1527.362)"></path><path style="line-height:normal;-inkscape-font-specification:Sans;text-indent:0;text-align:start;text-decoration-line:none;text-transform:none;block-progression:tb;marker:none" fill="#cad1d8" d="M175 1555.362a.5.5 0 1 1 0 1 .5.5 0 0 1 0-1zm12 0a.5.5 0 1 1 0 1 .5.5 0 0 1 0-1z" color="#000" font-family="Sans" font-weight="400" overflow="visible" transform="translate(-163.489 -1527.362)"></path><path style="line-height:normal;text-indent:0;text-align:start;text-decoration-line:none;text-decoration-style:solid;text-decoration-color:#000;text-transform:none;block-progression:tb;isolation:auto;mix-blend-mode:normal" fill="#f05542" fill-rule="evenodd" d="M191.488 1554.362v.73c.005.133-.022.185-.035.27h-.461c-.676.01-.676-1.01 0-1z" color="#000" font-family="sans-serif" font-weight="400" overflow="visible" transform="translate(-163.489 -1527.362)"></path><path fill="none" stroke="#2b4255" d="M4.5 2v11.5H23"></path><path fill="none" stroke="#576d7e" d="M9 15.5h9"></path></svg>