<svg xmlns="http://www.w3.org/2000/svg" width="32" height="32" id="car"><g transform="translate(-251.5 -1491.862)"><circle cx="267" cy="1508.362" r="13.5" fill="#e9eded"></circle><path fill="#576d7e" d="M255.309 1515.112a13.5 13.5 0 0 1-1.809-6.75h3.5a10 10 0 0 0 1.27 4.878l.076.147-2.598 1.5z"></path><path fill="#34485c" d="M253.502 1508.354a13.5 13.5 0 0 1 1.809-6.75l.433.25 2.598 1.5a10 10 0 0 0-1.339 4.859l-.008.166h-3z"></path><path fill="#60c5b8" d="M255.317 1501.598a13.5 13.5 0 0 1 4.941-4.942l.25.433 1.5 2.598a10 10 0 0 0-3.588 3.539l-.09.14-2.598-1.5z"></path><path fill="#25b39e" d="M260.267 1496.654a13.499 13.499 0 0 1 6.75-1.809v3.5a10 10 0 0 0-4.877 1.27l-.148.076-1.5-2.598z"></path><path fill="#fcd062" d="M267.025 1494.848a13.5 13.5 0 0 1 6.75 1.808l-.25.433-1.5 2.598a10 10 0 0 0-4.859-1.338l-.166-.01v-3z"></path><path fill="#f8b84e" d="M273.782 1496.662a13.5 13.5 0 0 1 4.94 4.942l-.432.25-2.598 1.5a10 10 0 0 0-3.539-3.59l-.139-.091 1.5-2.598z"></path><path fill="#f17f53" d="M278.725 1501.612a13.5 13.5 0 0 1 1.809 6.75h-3.5a10 10 0 0 0-1.27-4.877l-.074-.15 2.598-1.5z"></path><path fill="#f05542" d="M280.532 1508.37a13.5 13.5 0 0 1-1.81 6.75l-.432-.25-2.598-1.5a10 10 0 0 0 1.339-4.858l.01-.166h3z"></path><circle cx="267" cy="1509.862" r="1" fill="#2b4255"></circle><path fill="none" stroke="#2b4255" d="M267 1509.362v-8m0 9v2"></path><path fill="#4bbfeb" d="M261.5 1515.862h11v2h-11z"></path></g></svg>