<svg xmlns="http://www.w3.org/2000/svg" width="32" height="32" id="car"><path fill="#f8b84e" d="M9.111 12v1.84a5.833 5.833 0 0 0-1.63.676L6.18 13.215 4.215 15.18l1.3 1.3a5.833 5.833 0 0 0-.673 1.631H3v2.778h1.84a5.833 5.833 0 0 0 .676 1.63L4.215 23.82l1.965 1.965 1.3-1.3a5.833 5.833 0 0 0 1.631.673V27h2.778v-1.84a5.833 5.833 0 0 0 1.63-.676l1.301 1.301 1.965-1.965-1.3-1.3a5.833 5.833 0 0 0 .673-1.631H18V18.11h-1.84a5.833 5.833 0 0 0-.676-1.63l1.301-1.301-1.965-1.965-1.3 1.3a5.833 5.833 0 0 0-1.631-.673V12H9.11zm1.389 4.445a3.056 3.056 0 0 1 3.055 3.055 3.056 3.056 0 0 1-3.055 3.055A3.056 3.056 0 0 1 7.445 19.5a3.056 3.056 0 0 1 3.055-3.055Z"></path><path fill="#f05542" d="M21.482 5.5v1.35a4.278 4.278 0 0 0-1.197.494l-.953-.953-1.441 1.441.955.955a4.278 4.278 0 0 0-.496 1.195H17v2.036h1.35a4.278 4.278 0 0 0 .494 1.197l-.953.953 1.441 1.441.955-.955a4.278 4.278 0 0 0 1.195.496v1.35h2.036v-1.35a4.278 4.278 0 0 0 1.197-.494l.953.953 1.441-1.441-.955-.955a4.278 4.278 0 0 0 .496-1.195H28V9.982h-1.35a4.278 4.278 0 0 0-.494-1.197l.953-.953-1.441-1.441-.955.955a4.278 4.278 0 0 0-1.195-.496V5.5h-2.036zM22.5 8.76A2.24 2.24 0 0 1 24.74 11a2.24 2.24 0 0 1-2.24 2.24A2.24 2.24 0 0 1 20.26 11a2.24 2.24 0 0 1 2.24-2.24Z"></path></svg>