<svg xmlns="http://www.w3.org/2000/svg" width="32" height="32" id="car"><path d="M16 1C7.722 1 1 7.722 1 16c0 8.278 6.722 15 15 15 8.278 0 15-6.722 15-15 0-8.278-6.722-15-15-15zm0 1c7.738 0 14 6.262 14 14s-6.262 14-14 14S2 23.738 2 16 8.262 2 16 2zm0 2C9.379 4 4 9.379 4 16c0 6.622 5.379 12 12 12s12-5.378 12-12c0-6.621-5.379-12-12-12zm0 1c5.397 0 9.87 3.877 10.81 9h-3.046c-1.285-1.915-4.352-3-7.776-3a.5.5 0 0 0-.002 0c-3.412 0-6.46 1.092-7.738 3H5.189C6.13 8.877 10.603 5 16 5zm-.012 7c3.274 0 6.105 1.203 7.008 2.654l-.002 3.45a5.405 5.405 0 0 0-4.892 4.89h-4.204a5.403 5.403 0 0 0-4.89-4.89l-.004-3.432c.888-1.452 3.71-2.668 6.984-2.672zm5.53 2.283a.5.5 0 0 0-.05.002.5.5 0 0 0-.263.096l-.99.709a.5.5 0 1 0 .58.812l.99-.707a.5.5 0 0 0-.267-.912zM5.05 15h2.953l.002 2H5.05C5.02 16.67 5 16.338 5 16c0-.337.021-.67.05-1zM16 15c-1.099 0-2 .901-2 2s.901 2 2 2 2-.901 2-2-.901-2-2-2zm7.996 0h2.953c.03.33.051.663.051 1 0 .338-.021.67-.05 1h-2.956l.002-2zM16 16c.558 0 1 .442 1 1s-.442 1-1 1-1-.442-1-1 .442-1 1-1zm5.518.283a.5.5 0 0 0-.05.002.5.5 0 0 0-.263.096l-.99.709a.5.5 0 1 0 .58.812l.99-.707a.5.5 0 0 0-.267-.912zM5.189 18h2.819v.502a.5.5 0 0 0 .5.5A4.484 4.484 0 0 1 13 23.494a.5.5 0 0 0 .5.5h.5v2.815A10.987 10.987 0 0 1 5.19 18zm18.805 0h2.817A10.987 10.987 0 0 1 18 26.809v-2.815h.5a.5.5 0 0 0 .5-.5 4.486 4.486 0 0 1 4.494-4.492.5.5 0 0 0 .5-.5V18zM15 23.994h2v2.953c-.33.03-.662.053-1 .053-.338 0-.67-.023-1-.053v-2.953z" color="#000" font-family="sans-serif" font-weight="400" overflow="visible" style="line-height:normal;text-indent:0;text-align:start;text-decoration-line:none;text-decoration-style:solid;text-decoration-color:#000;text-transform:none;block-progression:tb;white-space:normal;isolation:auto;mix-blend-mode:normal;solid-color:#000;solid-opacity:1"></path></svg>